PathFileType	4	(X/Y/Z)	 1.9Hzlow3min.trc
DataRate	CameraRate	NumFrames	NumMarkers	Units	OrigDataRate	OrigDataStartFrame	OrigNumFrames
200	200	9	43	m	200	376	1000
Frame#	Time	C7			LSH			RSH			MAN			RASI			LASI			HIPR			HIPL			RPSI			LPSI			COX			RTHI1			RTHI2			RTHI3			RTHI4			RLKN			RMKN			RSHA1			RSHA2			RSHA3			RSHA4			RLMAL			RMMAL			RHEEL			RMET5			RMET1			RTOE			LTHI1			LTHI2			LTHI3			LTHI4			LLKN			LMKN			LSHA1			LSHA2			LSHA3			LSHA4			LLMAL			LMMAL			LHEEL			LMET5			LMET1			LTOE			
		X1	Y1	Z1	X2	Y2	Z2	X3	Y3	Z3	X4	Y4	Z4	X5	Y5	Z5	X6	Y6	Z6	X7	Y7	Z7	X8	Y8	Z8	X9	Y9	Z9	X10	Y10	Z10	X11	Y11	Z11	X12	Y12	Z12	X13	Y13	Z13	X14	Y14	Z14	X15	Y15	Z15	X16	Y16	Z16	X17	Y17	Z17	X18	Y18	Z18	X19	Y19	Z19	X20	Y20	Z20	X21	Y21	Z21	X22	Y22	Z22	X23	Y23	Z23	X24	Y24	Z24	X25	Y25	Z25	X26	Y26	Z26	X27	Y27	Z27	X28	Y28	Z28	X29	Y29	Z29	X30	Y30	Z30	X31	Y31	Z31	X32	Y32	Z32	X33	Y33	Z33	X34	Y34	Z34	X35	Y35	Z35	X36	Y36	Z36	X37	Y37	Z37	X38	Y38	Z38	X39	Y39	Z39	X40	Y40	Z40	X41	Y41	Z41	X42	Y42	Z42	X43	Y43	Z43	
376	1.8800	-0.262029	1.561287	-0.524321	-0.203240	1.543264	-0.722778	-0.175580	1.542971	-0.328110	-0.121167	1.512982	-0.529766	-0.159368	1.033005	-0.405850	-0.170833	1.041596	-0.661280	-0.208653	1.131037	-0.361757	-0.208385	1.119133	-0.690352	-0.334213	1.086771	-0.468048	-0.335422	1.088608	-0.570380	-0.339507	1.084769	-0.522986	-0.221441	0.815228	-0.332691	-0.215574	0.754085	-0.333910	-0.144544	0.769004	-0.335121	-0.157517	0.827411	-0.335534	-0.166628	0.505053	-0.348421	-0.174380	0.503037	-0.480990	-0.284197	0.366785	-0.341732	-0.296997	0.326982	-0.352736	-0.242061	0.309189	-0.333355	-0.232732	0.347638	-0.328280	-0.327904	0.132451	-0.349535	-0.297399	0.135342	-0.441914	-0.383389	0.121679	-0.388501	-0.231738	0.037175	-0.333870	-0.187645	0.047961	-0.417668	-0.158085	0.037577	-0.415644	-0.259744	0.822620	-0.713480	-0.240995	0.764211	-0.720543	-0.180446	0.779718	-0.736225	-0.190649	0.839350	-0.731581	-0.182596	0.528691	-0.715919	-0.166495	0.521336	-0.584444	-0.301607	0.343698	-0.716370	-0.320516	0.309037	-0.706184	-0.265553	0.283367	-0.712608	-0.251709	0.323924	-0.722789	-0.350073	0.140366	-0.704235	-0.333215	0.140637	-0.613782	-0.409030	0.133806	-0.663363	-0.259162	0.038645	-0.708320	-0.219579	0.051104	-0.628694	-0.194890	0.039419	-0.628841	
377	1.8850	-0.262145	1.554446	-0.524504	-0.203248	1.536067	-0.723215	-0.175554	1.535936	-0.328064	-0.121115	1.506058	-0.529928	-0.159916	1.026494	-0.405755	-0.171087	1.035061	-0.661256	-0.209189	1.124023	-0.361661	-0.208889	1.112028	-0.690623	-0.334933	1.079876	-0.468058	-0.336041	1.081696	-0.570440	-0.340161	1.077857	-0.523055	-0.221017	0.808533	-0.332598	-0.214810	0.747421	-0.333887	-0.143862	0.762753	-0.334938	-0.157155	0.821078	-0.335317	-0.164394	0.498713	-0.348333	-0.172274	0.496884	-0.480628	-0.283752	0.362211	-0.341910	-0.297195	0.322565	-0.352846	-0.242475	0.303963	-0.333300	-0.232645	0.342296	-0.328244	-0.330787	0.128530	-0.349610	-0.300153	0.131886	-0.442094	-0.386243	0.117246	-0.388484	-0.233131	0.035804	-0.332791	-0.188550	0.048066	-0.417242	-0.158661	0.037572	-0.415387	-0.259083	0.815677	-0.713623	-0.240068	0.757322	-0.720622	-0.179631	0.773109	-0.736476	-0.190081	0.832716	-0.731812	-0.180886	0.522106	-0.716426	-0.164620	0.514796	-0.585029	-0.301861	0.338660	-0.716960	-0.321275	0.304295	-0.706805	-0.266638	0.277870	-0.712845	-0.252193	0.318206	-0.723044	-0.352785	0.136254	-0.704345	-0.336540	0.136971	-0.613605	-0.412055	0.129284	-0.664162	-0.260190	0.037517	-0.709391	-0.220545	0.050925	-0.629189	-0.195611	0.039359	-0.628786	
378	1.8900	-0.262280	1.547463	-0.524729	-0.203256	1.528789	-0.723692	-0.175553	1.528763	-0.328006	-0.121007	1.499070	-0.530098	-0.160497	1.019904	-0.405633	-0.171365	1.028443	-0.661224	-0.209795	1.116854	-0.361548	-0.209396	1.104732	-0.690906	-0.335740	1.072798	-0.468090	-0.336739	1.074623	-0.570504	-0.340892	1.070762	-0.523140	-0.220569	0.801781	-0.332490	-0.214005	0.740714	-0.333815	-0.143143	0.756470	-0.334710	-0.156780	0.814704	-0.335070	-0.162020	0.492377	-0.348191	-0.170065	0.490684	-0.480199	-0.283183	0.357674	-0.342036	-0.297218	0.318192	-0.352910	-0.242686	0.298833	-0.333190	-0.232415	0.337050	-0.328155	-0.333222	0.124758	-0.349651	-0.302667	0.128516	-0.442260	-0.388767	0.112973	-0.388291	-0.234363	0.034792	-0.331864	-0.189365	0.048157	-0.416854	-0.159128	0.037563	-0.415108	-0.258435	0.808563	-0.713820	-0.239152	0.750283	-0.720805	-0.178827	0.766354	-0.736808	-0.189529	0.825931	-0.732103	-0.179234	0.515414	-0.716964	-0.162702	0.508076	-0.585631	-0.301895	0.333615	-0.717511	-0.321794	0.299537	-0.707422	-0.267465	0.272402	-0.713034	-0.252448	0.312516	-0.723221	-0.355115	0.132179	-0.704408	-0.339588	0.133348	-0.613359	-0.414794	0.124921	-0.664983	-0.261205	0.036676	-0.710364	-0.221773	0.050731	-0.628770	-0.196310	0.039303	-0.628272	
379	1.8950	-0.262437	1.540385	-0.524998	-0.203257	1.521455	-0.724207	-0.175572	1.521490	-0.327942	-0.120840	1.492038	-0.530273	-0.161123	1.013260	-0.405475	-0.171681	1.021779	-0.661182	-0.210466	1.109557	-0.361408	-0.209891	1.097256	-0.691190	-0.336636	1.065558	-0.468145	-0.337533	1.067411	-0.570580	-0.341713	1.063500	-0.523249	-0.220098	0.795014	-0.332371	-0.213139	0.733993	-0.333720	-0.142375	0.750210	-0.334459	-0.156391	0.808345	-0.334806	-0.159500	0.486107	-0.348003	-0.167699	0.484523	-0.479723	-0.282455	0.353211	-0.342096	-0.297038	0.313893	-0.352911	-0.242664	0.293844	-0.333065	-0.231970	0.331927	-0.328068	-0.335148	0.121108	-0.349686	-0.304928	0.125169	-0.442443	-0.390955	0.108825	-0.388012	-0.235248	0.033868	-0.331043	-0.189890	0.048197	-0.416526	-0.159428	0.037595	-0.414863	-0.257801	0.801320	-0.714059	-0.238249	0.743127	-0.721060	-0.178039	0.759479	-0.737192	-0.188989	0.819030	-0.732444	-0.177628	0.508679	-0.717527	-0.160741	0.501240	-0.586233	-0.301674	0.328613	-0.718049	-0.322028	0.294797	-0.708038	-0.267981	0.267016	-0.713135	-0.252425	0.306931	-0.723305	-0.357079	0.128154	-0.704355	-0.342341	0.129786	-0.613003	-0.417261	0.120685	-0.665689	-0.261797	0.035976	-0.711026	-0.222790	0.050543	-0.628076	-0.196916	0.039237	-0.627712	
380	1.9000	-0.262602	1.533274	-0.525299	-0.203250	1.514124	-0.724761	-0.175619	1.514188	-0.327880	-0.120605	1.484993	-0.530452	-0.161793	1.006597	-0.405276	-0.172050	1.015095	-0.661130	-0.211202	1.102150	-0.361243	-0.210376	1.089637	-0.691464	-0.337626	1.058182	-0.468235	-0.338424	1.060098	-0.570657	-0.342631	1.056093	-0.523374	-0.219590	0.788272	-0.332245	-0.212199	0.727310	-0.333611	-0.141542	0.744024	-0.334205	-0.155977	0.802059	-0.334545	-0.156833	0.479970	-0.347789	-0.165160	0.478448	-0.479233	-0.281551	0.348839	-0.342091	-0.296604	0.309687	-0.352861	-0.242411	0.289029	-0.332950	-0.231297	0.326958	-0.328010	-0.336567	0.117531	-0.349758	-0.306856	0.121857	-0.442724	-0.392806	0.104802	-0.387741	-0.235785	0.033100	-0.330159	-0.190147	0.048184	-0.416255	-0.159502	0.037559	-0.414708	-0.257177	0.793994	-0.714332	-0.237357	0.735898	-0.721358	-0.177254	0.752534	-0.737594	-0.188469	0.812048	-0.732816	-0.176072	0.501961	-0.718085	-0.158774	0.494330	-0.586799	-0.301184	0.323686	-0.718552	-0.321957	0.290121	-0.708622	-0.268162	0.261765	-0.713125	-0.252111	0.301502	-0.723280	-0.358733	0.124161	-0.704113	-0.344845	0.126278	-0.612499	-0.419493	0.116536	-0.666156	-0.262193	0.035401	-0.711589	-0.223429	0.050261	-0.627649	-0.197323	0.039157	-0.627346	
381	1.9050	-0.262762	1.526186	-0.525622	-0.203224	1.506830	-0.725350	-0.175691	1.506921	-0.327819	-0.120303	1.477965	-0.530634	-0.162511	0.999951	-0.405034	-0.172473	1.008435	-0.661084	-0.212005	1.094660	-0.361050	-0.210859	1.081915	-0.691718	-0.338718	1.050690	-0.468350	-0.339425	1.052714	-0.570727	-0.343649	1.048576	-0.523513	-0.219024	0.781614	-0.332114	-0.211160	0.720727	-0.333494	-0.140629	0.737980	-0.333972	-0.155525	0.795894	-0.334302	-0.154044	0.474009	-0.347581	-0.162406	0.472567	-0.478761	-0.280463	0.344569	-0.342067	-0.295924	0.305596	-0.352770	-0.241910	0.284389	-0.332885	-0.230406	0.322189	-0.328000	-0.337541	0.113987	-0.349929	-0.308443	0.118567	-0.443126	-0.394421	0.100887	-0.387628	-0.236146	0.032444	-0.329351	-0.190190	0.048106	-0.415999	-0.159378	0.037525	-0.414533	-0.256560	0.786641	-0.714624	-0.236461	0.728644	-0.721646	-0.176463	0.745578	-0.737981	-0.187961	0.805038	-0.733196	-0.174542	0.495333	-0.718606	-0.156789	0.487464	-0.587304	-0.300462	0.318861	-0.718970	-0.321615	0.285532	-0.709108	-0.268042	0.256674	-0.712958	-0.251546	0.296234	-0.723108	-0.360119	0.120223	-0.703645	-0.347108	0.122812	-0.611805	-0.421510	0.112499	-0.666296	-0.262590	0.034937	-0.712090	-0.223800	0.049943	-0.627429	-0.197571	0.039040	-0.627011	
382	1.9100	-0.262909	1.519218	-0.525949	-0.203176	1.499628	-0.725968	-0.175781	1.499734	-0.327766	-0.119935	1.470982	-0.530818	-0.163282	0.993374	-0.404742	-0.172954	1.001845	-0.661045	-0.212874	1.087109	-0.360834	-0.211337	1.074115	-0.691943	-0.339914	1.043122	-0.468495	-0.340521	1.045306	-0.570828	-0.344770	1.040997	-0.523664	-0.218392	0.775113	-0.331975	-0.210020	0.714297	-0.333375	-0.139627	0.732134	-0.333790	-0.155019	0.789923	-0.334095	-0.151171	0.468256	-0.347406	-0.159465	0.466902	-0.478340	-0.279205	0.340420	-0.342051	-0.295034	0.301648	-0.352691	-0.241214	0.279927	-0.332966	-0.229290	0.317589	-0.328115	-0.338184	0.110488	-0.350255	-0.309710	0.115317	-0.443655	-0.395832	0.097148	-0.387736	-0.236394	0.031914	-0.328656	-0.190190	0.047973	-0.415805	-0.159224	0.037492	-0.414387	-0.255953	0.779341	-0.714907	-0.235556	0.721443	-0.721886	-0.175664	0.738685	-0.738304	-0.187465	0.798086	-0.733555	-0.172993	0.488865	-0.719050	-0.154803	0.480741	-0.587712	-0.299570	0.314174	-0.719222	-0.321077	0.281073	-0.709403	-0.267701	0.251764	-0.712574	-0.250800	0.291144	-0.722750	-0.361275	0.116374	-0.702924	-0.349110	0.119415	-0.610903	-0.423325	0.108624	-0.666056	-0.262942	0.034536	-0.712479	-0.224119	0.049640	-0.627202	-0.197749	0.038943	-0.626546	
383	1.9150	-0.263039	1.512453	-0.526270	-0.203116	1.492544	-0.726610	-0.175862	1.492652	-0.327730	-0.119511	1.464079	-0.531015	-0.164108	0.986912	-0.404403	-0.173498	0.995366	-0.661012	-0.213808	1.079533	-0.360587	-0.211810	1.066294	-0.692131	-0.341203	1.035535	-0.468656	-0.341718	1.037927	-0.570940	-0.345993	1.033419	-0.523821	-0.217689	0.768828	-0.331830	-0.208781	0.708094	-0.333266	-0.138543	0.726548	-0.333665	-0.154448	0.784203	-0.333927	-0.148239	0.462746	-0.347285	-0.156367	0.461516	-0.477996	-0.277779	0.336442	-0.342073	-0.293979	0.297906	-0.352652	-0.240343	0.275660	-0.333233	-0.227983	0.313164	-0.328374	-0.338619	0.107118	-0.350740	-0.310707	0.112187	-0.444329	-0.397071	0.093709	-0.388065	-0.236632	0.031523	-0.328111	-0.190241	0.047831	-0.415697	-0.159131	0.037478	-0.414251	-0.255360	0.772194	-0.715154	-0.234638	0.714400	-0.722064	-0.174856	0.731968	-0.738551	-0.186996	0.791301	-0.733863	-0.171376	0.482629	-0.719372	-0.152803	0.474283	-0.587996	-0.298592	0.309679	-0.719233	-0.320430	0.276800	-0.709436	-0.267252	0.247067	-0.711961	-0.249970	0.286269	-0.722193	-0.362263	0.112685	-0.701937	-0.350808	0.116168	-0.609787	-0.424952	0.104967	-0.665428	-0.263272	0.034295	-0.712653	-0.224441	0.049341	-0.626795	-0.197898	0.038806	-0.626054	
384	1.9200	-0.263141	1.505960	-0.526580	-0.203039	1.485645	-0.727251	-0.175948	1.485785	-0.327714	-0.119038	1.457293	-0.531222	-0.164972	0.980625	-0.404028	-0.174102	0.989049	-0.660997	-0.214819	1.071964	-0.360330	-0.212313	1.058517	-0.692285	-0.342582	1.027997	-0.468824	-0.343000	1.030653	-0.571047	-0.347298	1.025928	-0.523968	-0.216922	0.762826	-0.331683	-0.207464	0.702178	-0.333171	-0.137392	0.721271	-0.333588	-0.153825	0.778787	-0.333791	-0.145280	0.457526	-0.347243	-0.153170	0.456453	-0.477755	-0.276215	0.332665	-0.342174	-0.292775	0.294405	-0.352729	-0.239320	0.271613	-0.333675	-0.226535	0.308960	-0.328771	-0.338965	0.104004	-0.351417	-0.311494	0.109289	-0.445164	-0.398159	0.090616	-0.388644	-0.236829	0.031333	-0.327723	-0.190314	0.047701	-0.415629	-0.159095	0.037446	-0.414102	-0.254786	0.765319	-0.715351	-0.233710	0.707642	-0.722170	-0.174047	0.725565	-0.738714	-0.186572	0.784814	-0.734110	-0.169647	0.476676	-0.719526	-0.150786	0.468190	-0.588132	-0.297604	0.305420	-0.718935	-0.319749	0.272763	-0.709135	-0.266769	0.242627	-0.711144	-0.249138	0.281641	-0.721444	-0.363144	0.109262	-0.700701	-0.352221	0.113124	-0.608465	-0.426393	0.101589	-0.664433	-0.263630	0.034180	-0.712657	-0.224636	0.049114	-0.626374	-0.197941	0.038675	-0.625642	
